<svg xmlns="http://www.w3.org/2000/svg" xmlns:xlink="http://www.w3.org/1999/xlink" width="500" zoomAndPan="magnify" viewBox="0 0 375 374.999991" height="500" preserveAspectRatio="xMidYMid meet" version="1.0"><defs><g/></defs><g fill="#ffffff" fill-opacity="1"><g transform="translate(110.465842, 208.037696)"><g><path d="M 15.9375 0 L 6.65625 0 L 6.65625 -51.203125 L 19.890625 -51.203125 L 32.859375 -13.5625 L 33.59375 -13.5625 L 46.484375 -51.203125 L 59.40625 -51.203125 L 59.40625 0 L 49.8125 0 L 49.8125 -33.828125 L 48.9375 -33.96875 L 37.09375 0 L 28.65625 0 L 16.8125 -33.96875 L 15.9375 -33.828125 Z M 15.9375 0 "/></g></g></g><g fill="#ffffff" fill-opacity="1"><g transform="translate(196.250471, 208.034312)"><g><path d="M 6.65625 0 L 6.65625 -51.1875 L 16.765625 -51.1875 L 16.765625 -30.28125 L 17.890625 -30.28125 L 34.96875 -51.1875 L 45.34375 -51.1875 L 45.34375 -50.3125 L 26.5 -27.03125 L 47.296875 -0.875 L 47.296875 0 L 35.859375 0 L 17.890625 -22.09375 L 16.765625 -22.09375 L 16.765625 0 Z M 6.65625 0 "/></g></g></g><g fill="#ffffff" fill-opacity="1"><g transform="translate(154.036108, 208.037682)"><g><path d="M 15.9375 0 L 6.65625 0 L 6.65625 -51.203125 L 19.890625 -51.203125 L 32.859375 -13.5625 L 33.59375 -13.5625 L 46.484375 -51.203125 L 59.40625 -51.203125 L 59.40625 0 L 49.8125 0 L 49.8125 -33.828125 L 48.9375 -33.96875 L 37.09375 0 L 28.65625 0 L 16.8125 -33.96875 L 15.9375 -33.828125 Z M 15.9375 0 "/></g></g></g><g fill="#ffffff" fill-opacity="1"><g transform="translate(228.605087, 187.822584)"><g><path d="M 9.875 0.3125 C 8.632812 0.3125 7.539062 0.0625 6.59375 -0.4375 C 5.65625 -0.9375 4.929688 -1.628906 4.421875 -2.515625 C 3.921875 -3.398438 3.671875 -4.40625 3.671875 -5.53125 C 3.671875 -6.65625 3.921875 -7.660156 4.421875 -8.546875 C 4.929688 -9.429688 5.65625 -10.128906 6.59375 -10.640625 C 7.539062 -11.148438 8.632812 -11.40625 9.875 -11.40625 C 11.132812 -11.40625 12.234375 -11.15625 13.171875 -10.65625 C 14.117188 -10.15625 14.84375 -9.460938 15.34375 -8.578125 C 15.851562 -7.691406 16.109375 -6.6875 16.109375 -5.5625 C 16.109375 -3.863281 15.539062 -2.457031 14.40625 -1.34375 C 13.269531 -0.238281 11.757812 0.3125 9.875 0.3125 Z M 9.875 0.3125 "/></g></g></g></svg>